<svg xmlns="http://www.w3.org/2000/svg" xmlns:xlink="http://www.w3.org/1999/xlink" fill="none" version="1.1" width="512" height="512" viewBox="0 0 512 512"><defs><clipPath id="master_svg0_168_06878"><rect x="0" y="0" width="512" height="512" rx="0"/></clipPath><filter id="master_svg1_168_06881" filterUnits="objectBoundingBox" color-interpolation-filters="sRGB" x="-0.34782608695652173" y="-0.03319501654343771" width="1.6956521739130435" height="1.0663900330868754"><feFlood flood-opacity="0" result="BackgroundImageFix"/><feColorMatrix in="SourceAlpha" type="matrix" values="0 0 0 0 0 0 0 0 0 0 0 0 0 0 0 0 0 0 127 0"/><feOffset dy="0" dx="0"/><feGaussianBlur stdDeviation="4"/><feColorMatrix type="matrix" values="0 0 0 0 1 0 0 0 0 1 0 0 0 0 1 0 0 0 1 0"/><feBlend mode="normal" in2="BackgroundImageFix" result="effect1_dropShadow"/><feBlend mode="normal" in="SourceGraphic" in2="effect1_dropShadow" result="shape"/></filter><filter id="master_svg2_168_06882" filterUnits="objectBoundingBox" color-interpolation-filters="sRGB" x="0" y="0" width="1" height="1"><feFlood flood-opacity="0" result="BackgroundImageFix"/><feBlend mode="normal" in="SourceGraphic" in2="BackgroundImageFix" result="shape"/><feColorMatrix in="SourceAlpha" type="matrix" result="hardAlpha" values="0 0 0 0 0 0 0 0 0 0 0 0 0 0 0 0 0 0 127 0"/><feOffset dy="0" dx="0"/><feGaussianBlur stdDeviation="0"/><feComposite in2="hardAlpha" operator="arithmetic" k2="-1" k3="1"/><feColorMatrix type="matrix" values="0 0 0 0 0.7333333492279053 0 0 0 0 0.9686274528503418 0 0 0 0 0.8156862854957581 0 0 0 1 0"/><feBlend mode="normal" in2="shape" result="effect1_innerShadow"/></filter><filter id="master_svg3_168_06883" filterUnits="objectBoundingBox" color-interpolation-filters="sRGB" x="-0.3478260292673477" y="-0.03513997935386803" width="1.6956520585346955" height="1.070279958707736"><feFlood flood-opacity="0" result="BackgroundImageFix"/><feColorMatrix in="SourceAlpha" type="matrix" values="0 0 0 0 0 0 0 0 0 0 0 0 0 0 0 0 0 0 127 0"/><feOffset dy="0" dx="0"/><feGaussianBlur stdDeviation="4"/><feColorMatrix type="matrix" values="0 0 0 0 1 0 0 0 0 1 0 0 0 0 1 0 0 0 1 0"/><feBlend mode="normal" in2="BackgroundImageFix" result="effect1_dropShadow"/><feBlend mode="normal" in="SourceGraphic" in2="effect1_dropShadow" result="shape"/></filter><filter id="master_svg4_168_06885" filterUnits="objectBoundingBox" color-interpolation-filters="sRGB" x="-0.35555555555555557" y="-0.07079646017699115" width="1.711111111111111" height="1.1415929203539823"><feFlood flood-opacity="0" result="BackgroundImageFix"/><feColorMatrix in="SourceAlpha" type="matrix" values="0 0 0 0 0 0 0 0 0 0 0 0 0 0 0 0 0 0 127 0"/><feOffset dy="0" dx="0"/><feGaussianBlur stdDeviation="4"/><feColorMatrix type="matrix" values="0 0 0 0 1 0 0 0 0 1 0 0 0 0 1 0 0 0 1 0"/><feBlend mode="normal" in2="BackgroundImageFix" result="effect1_dropShadow"/><feBlend mode="normal" in="SourceGraphic" in2="effect1_dropShadow" result="shape"/></filter></defs><g clip-path="url(#master_svg0_168_06878)"><path d="M402,0L411.999985,0C467.22847,0,512,44.77153,512,100L512,412C512,467.22849,467.22847,512,411.999985,512L402,512L362.000004,512.00006C350.4020195,512.00006,341,502.59805,341,491.00006L341,21.000002C341,9.4020205,350.4020195,0,362,0L402,0Z" fill-rule="evenodd" fill="#000000" fill-opacity="1"/><path d="M396,15L362,15Q359.5147171,15,357.7573586,16.7573586Q356,18.5147171,356,21.0000019L356,490.99994Q356,493.48532,357.7573853,495.24271Q359.5147324,497.00006,362.0000038,497.00006L396,497.00006C399.313709,497.00006,402,494.31378,402,491.00006L402,21.0000005C402,17.686291699999998,399.313709,15,396,15Z" fill-rule="evenodd" fill="#FFFFFF" fill-opacity="1" filter="url(#master_svg1_168_06881)"/><path d="M99.999962,512.00006C44.7715,512.00006,0,467.22849,0,412.00003L0,100C0,44.77153,44.77153,0,100.00002,0L150.00003,0C150.96054,0,151.90598,0.064484224,152.83226,0.18935964L154.13869,0C163.45093,0,171,9.4020195,171,21L171,491C171,502.59799,163.45093,512,154.13869,512L152.75209,511.82135C151.85144,511.93924,150.93285,512.00006,150.00003,512.00006L99.999962,512.00006Z" fill-rule="evenodd" fill="#000000" fill-opacity="1" filter="url(#master_svg2_168_06882)"/><path d="M61.00000037060547,34.1120572501709L61.00000037060547,477.8880370501709C61.00000037060547,482.39633705017087,56.266060370605466,485.2559570501709,52.55337937060547,482.6984570501709Q45.92250637060547,478.1307770501709,39.89590837060547,472.1041670501709Q14.999992370605469,447.2082570501709,14.999992370605469,412.0001270501709L14.999999999999968,100.0000060501709Q14.999999999999968,64.7918450501709,39.89592737060547,39.8959240501709Q45.92251437060547,33.8693375501709,52.55338337060547,29.3016147601709C56.266060370605466,26.744105350170898,61.00000037060547,29.6037464501709,61.00000037060547,34.1120572501709Z" fill-rule="evenodd" fill="#FFFFFF" fill-opacity="1" filter="url(#master_svg3_168_06883)"/><path d="M231,256L320,256C331.59799,256,341,265.4020205,341,277L341,491C341,502.59798,331.59799,512,320,512L192.000004,512C180.4020195,512,171,502.59798,171,491L171,277C171,265.4020205,180.4020195,256,192,256L231,256Z" fill-rule="evenodd" fill="#000000" fill-opacity="1"/><path d="M225,271.0000002934383L192,271.0000019073486Q189.5147171,271.0000019073486,187.7573586,272.7573605Q186,274.514719,186,277L186,490.99994000000004Q186,493.48510999999996,187.7571421,495.24242000000004C187.7576305,495.24289,187.7570399,495.24232,187.7571421,495.24242000000004Q189.5148339,497,192.0000038,497L225,497C228.31370900000002,497,231,494.31371,231,491L231,277.00000239999997C231,273.6862917,228.31370900000002,271.0000001313768,225,271.0000002934383Z" fill-rule="evenodd" fill="#FFFFFF" fill-opacity="1" filter="url(#master_svg4_168_06885)"/></g></svg>