<svg xmlns="http://www.w3.org/2000/svg" xmlns:xlink="http://www.w3.org/1999/xlink" fill="none" version="1.1" width="16" height="16" viewBox="0 0 16 16"><defs><clipPath id="master_svg0_176_09702"><rect x="0" y="0" width="16" height="16" rx="0"/></clipPath></defs><g clip-path="url(#master_svg0_176_09702)"><g><path d="M3.1249988,16.000004C1.3991094,16.000004,0,14.600891,0,12.875003L0,3.1250005C0,1.3991103,1.3991103,0,3.1250007,0L4.687501,0C4.7175169,0,4.7470617,0.0020151138,4.7760081,0.0059175491L4.8168344,0C5.1078415,0,5.34375,0.29381323,5.34375,0.65625L5.34375,8.65625C5.34375,8.2938128,5.6375632,8,6,8L10,8C10.362437,8,10.65625,8.2938128,10.65625,8.65625L10.65625,0.65625C10.65625,0.29381323,10.950064,0,11.3125,0L12.875,0C14.60089,0,16,1.3991103,16,3.1250005L16,12.875002C16,14.600891,14.60089,16.000002,12.875,16.000002L12.5625,16.000002L11.3125,16.000004C10.950064,16.000004,10.65625,15.706191,10.65625,15.34375C10.65625,15.706187,10.362437,16,10,16L6,16C5.6375632,16,5.34375,15.706187,5.34375,15.34375C5.34375,15.706189,5.1078415,16.000002,4.8168344,16.000002L4.7735033,15.99442C4.7453575,15.998103,4.7166514,16.000004,4.687501,16.000004L3.1249988,16.000004ZM11.3125,0.46875L12.375,0.46875C12.478554,0.46875,12.5625,0.5526967,12.5625,0.65625L12.5625,15.343753C12.5625,15.447307,12.478554,15.531253,12.375,15.531253L11.3125,15.531253Q11.234836,15.531253,11.179918,15.476336Q11.125,15.421417,11.125,15.343749L11.125,0.65625Q11.125,0.57858515,11.179917,0.52366734Q11.234835,0.46875,11.3125,0.46875ZM1.9062505,14.934147L1.9062505,1.0661464C1.9062505,0.92526197,1.7583146,0.83589792,1.6422935,0.91582012Q1.4350786,1.0585618,1.246748,1.2468925Q0.46875048,2.0248899,0.46875048,3.125145L0.46875,12.875151Q0.46875,13.975405,1.2467475,14.753402Q1.4350786,14.941733,1.6422935,15.084473C1.7583146,15.164394,1.9062505,15.075031,1.9062505,14.934147ZM6,8.46875L7.03125,8.46875C7.1348038,8.46875,7.21875,8.5526962,7.21875,8.65625L7.21875,15.34375C7.21875,15.447304,7.1348038,15.53125,7.03125,15.53125L6,15.53125Q5.9223385,15.53125,5.8674107,15.476326Q5.8125,15.42141,5.8125,15.343748L5.8125,8.65625Q5.8125,8.5785847,5.8674173,8.5236673Q5.9223347,8.46875,6,8.46875Z" fill-rule="evenodd" fill="#000000" fill-opacity="1"/></g></g></svg>